HIERARCHY
ROOT SimulationBone
{
	OFFSET 0.000000 0.000000 0.000000
	CHANNELS 6 Xposition Yposition Zposition Zrotation Yrotation Xrotation 
	JOINT Hips
	{
		OFFSET 0.000000 0.000000 0.000000
		CHANNELS 6 Xposition Yposition Zposition Zrotation Yrotation Xrotation 
		JOINT LeftUpLeg
		{
			OFFSET 0.103458 1.857831 10.548500
			CHANNELS 3 Zrotation Yrotation Xrotation
			JOINT LeftLeg
			{
				OFFSET 43.500000 -0.000027 -0.000013
				CHANNELS 3 Zrotation Yrotation Xrotation
				JOINT LeftFoot
				{
					OFFSET 42.372196 0.000031 0.000011
					CHANNELS 3 Zrotation Yrotation Xrotation
					JOINT LeftToe
					{
						OFFSET 17.299994 -0.000003 -0.000004
						CHANNELS 3 Zrotation Yrotation Xrotation
						End Site
						{
							OFFSET 0.000000 0.000000 0.000000
						}
					}
				}
			}
		}
		JOINT RightUpLeg
		{
			OFFSET 0.103455 1.857826 -10.548502
			CHANNELS 3 Zrotation Yrotation Xrotation
			JOINT RightLeg
			{
				OFFSET 43.500038 -0.000023 0.000010
				CHANNELS 3 Zrotation Yrotation Xrotation
				JOINT RightFoot
				{
					OFFSET 42.372261 0.000004 0.000006
					CHANNELS 3 Zrotation Yrotation Xrotation
					JOINT RightToe
					{
						OFFSET 17.299988 -0.000008 0.000010
						CHANNELS 3 Zrotation Yrotation Xrotation
						End Site
						{
							OFFSET 0.000000 0.000000 0.000000
						}
					}
				}
			}
		}
		JOINT Spine
		{
			OFFSET 6.901968 -2.603722 -0.000004
			CHANNELS 3 Zrotation Yrotation Xrotation
			JOINT Spine1
			{
				OFFSET 12.588099 -0.000002 0.000005
				CHANNELS 3 Zrotation Yrotation Xrotation
				JOINT Spine2
				{
					OFFSET 12.343202 -0.000017 -0.000005
					CHANNELS 3 Zrotation Yrotation Xrotation
					JOINT Neck
					{
						OFFSET 25.832903 0.000008 0.000008
						CHANNELS 3 Zrotation Yrotation Xrotation
						JOINT Head
						{
							OFFSET 11.766607 0.000004 -0.000001
							CHANNELS 3 Zrotation Yrotation Xrotation
							End Site
							{
								OFFSET 0.000000 0.000000 0.000000
							}
						}
					}
					JOINT LeftShoulder
					{
						OFFSET 19.745907 -1.480366 6.000107
						CHANNELS 3 Zrotation Yrotation Xrotation
						JOINT LeftArm
						{
							OFFSET 11.284126 -0.000031 -0.000025
							CHANNELS 3 Zrotation Yrotation Xrotation
							JOINT LeftForeArm
							{
								OFFSET 33.000050 0.000011 0.000029
								CHANNELS 3 Zrotation Yrotation Xrotation
								JOINT LeftHand
								{
									OFFSET 25.200008 0.000009 0.000011
									CHANNELS 3 Zrotation Yrotation Xrotation
									End Site
									{
										OFFSET 0.000000 0.000000 0.000000
									}
								}
							}
						}
					}
					JOINT RightShoulder
					{
						OFFSET 19.746094 -1.480364 -6.000070
						CHANNELS 3 Zrotation Yrotation Xrotation
						JOINT RightArm
						{
							OFFSET 11.284145 -0.000017 -0.000020
							CHANNELS 3 Zrotation Yrotation Xrotation
							JOINT RightForeArm
							{
								OFFSET 33.000088 0.000019 0.000022
								CHANNELS 3 Zrotation Yrotation Xrotation
								JOINT RightHand
								{
									OFFSET 25.199780 0.000137 0.000414
									CHANNELS 3 Zrotation Yrotation Xrotation
									End Site
									{
										OFFSET 0.000000 0.000000 0.000000
									}
								}
							}
						}
					}
				}
			}
		}
	}
}
MOTION
Frames: 9
Frame Time: 0.016667
194.791646 0.000000 165.712540 0.000000 134.424116 0.000000 -9.701689 88.000389 -5.195590 85.034758 -12.452008 -177.263760 150.668467 1.523502 -168.061804 -59.029923 1.499696 0.164786 84.728059 -3.613602 -16.770987 21.454555 0.003103 0.000016 149.394268 13.069902 -160.212373 -55.439777 -3.078353 8.238258 95.691953 -5.384745 0.245140 21.454555 -0.003095 -0.000002 14.074487 -0.928113 0.541092 18.130802 -1.929476 0.929999 17.812553 -1.923956 0.941622 25.314541 -6.058913 24.004280 -10.056616 -16.152211 30.124381 140.104609 -69.182894 39.824499 -6.739779 41.982792 -22.513848 -95.065898 -1.274267 2.662691 -4.271379 -18.325056 31.331333 152.163716 77.984493 -26.888393 -9.743479 -56.524096 -9.231276 -66.714985 19.633249 -2.681414 10.296425 18.190769 -5.778180 
195.035409 0.000000 163.696671 0.000000 134.406297 0.000000 -9.592388 88.927025 -5.051053 85.103386 -12.211298 -177.741077 149.190593 2.543385 -169.582264 -57.663477 1.737050 -0.503272 83.214366 -3.119701 -15.693090 21.454557 0.003106 0.000018 151.387094 11.887323 -158.587511 -53.379008 -3.072083 7.485118 93.958700 -4.996917 -0.557686 21.454552 -0.003090 -0.000001 14.010167 -1.054319 0.713654 17.998674 -2.206754 1.254585 17.680391 -2.199271 1.267881 25.021013 -6.335561 24.363158 -10.094647 -15.964518 30.411449 140.493899 -68.947766 39.445571 -7.043787 43.430928 -21.631536 -93.548114 -1.729889 2.617821 -4.675971 -19.510289 33.618560 148.121210 78.557577 -30.951993 -14.375932 -54.443428 -3.642023 -67.361532 19.363783 -2.691977 9.443006 14.551918 -10.824654 
195.264398 0.000000 161.656352 0.000000 134.274407 0.000000 -9.483395 89.836372 -4.875974 85.192271 -11.893501 -178.217267 147.821617 3.503798 -170.872864 -55.704505 1.687237 -0.356671 80.955936 -3.379059 -15.050919 21.454560 0.003109 0.000020 153.481781 10.771191 -156.669486 -51.260784 -3.014518 6.451687 92.008337 -4.450739 -1.441049 21.454550 -0.003089 0.000001 13.945869 -1.192305 0.931222 17.864795 -2.514045 1.667255 17.546495 -2.504065 1.682401 24.853472 -6.417800 24.649096 -10.242886 -15.904930 30.701416 140.916213 -68.820471 39.024099 -7.271602 44.562977 -19.556569 -91.533987 -2.797121 2.610977 -4.194992 -19.954264 34.910639 144.010723 79.118330 -35.075979 -18.176466 -52.357238 1.473100 -68.497179 18.928486 -2.705014 8.816675 11.844991 -15.514628 
195.484364 0.000000 159.575138 0.000000 134.048297 0.000000 -9.356141 90.702836 -4.644544 85.252923 -11.510907 -178.724132 146.614666 4.421264 -171.527725 -53.147406 1.214044 0.454338 77.851711 -4.365982 -15.019460 21.454555 0.003104 0.000019 155.655479 9.508494 -154.590353 -49.005672 -3.072073 5.244383 90.023509 -3.796050 -2.234079 21.454550 -0.003095 0.000002 13.859220 -1.352210 1.173781 17.684330 -2.867898 2.127356 17.366034 -2.855136 2.144627 24.586577 -6.361509 24.954416 -10.346079 -15.847080 30.995510 141.591853 -69.030305 38.317061 -7.480706 45.629861 -16.131795 -89.060579 -4.794462 2.652371 -2.992914 -19.453893 35.075976 140.167404 79.723124 -38.917644 -21.797650 -50.156886 6.091720 -69.571721 18.515320 -2.720341 8.451731 10.151891 -18.560768 
195.684618 0.000000 157.452323 0.000000 133.765244 0.000000 -9.189171 91.494820 -4.379953 85.347460 -11.084011 -179.271715 145.620534 5.332895 -171.723209 -50.304755 0.462114 1.679440 74.703957 -5.801938 -15.399645 21.454551 0.003099 0.000018 157.911925 8.037393 -153.136774 -46.667898 -2.858787 4.207420 88.025203 -3.273955 -2.884353 21.454551 -0.003101 0.000001 13.753707 -1.527493 1.441371 17.463930 -3.255018 2.636230 17.145648 -3.239177 2.655825 24.192713 -6.238440 25.248730 -10.304275 -15.707734 31.212519 142.343927 -69.381400 37.521072 -7.409685 46.559647 -11.867277 -86.340270 -7.104354 2.680751 -1.130036 -18.315118 34.293815 136.280710 80.341630 -42.793801 -24.965111 -48.002842 10.036831 -70.655745 18.153781 -2.740248 8.083445 9.454198 -20.187558 
195.847612 0.000000 155.307670 0.000000 133.446903 0.000000 -8.961824 92.174356 -4.087846 85.540034 -10.625148 -179.820517 144.864734 6.269621 -171.731474 -47.502566 -0.374018 3.016663 72.322459 -7.342030 -16.066952 21.454552 0.003102 0.000018 160.285755 6.386656 -152.911137 -44.338284 -2.086966 3.657079 86.029698 -3.083048 -3.355173 21.454550 -0.003099 -0.000002 13.635723 -1.704186 1.732526 17.216235 -3.647203 3.193177 16.897976 -3.627989 3.215124 23.731743 -6.114806 25.479395 -10.096492 -15.449536 31.288034 142.920026 -69.623435 36.913618 -6.817217 47.198936 -7.305223 -83.572826 -9.052223 2.688942 1.276908 -16.878226 32.826942 131.881832 80.899366 -47.183031 -27.355792 -46.111875 13.298652 -71.946026 17.779528 -2.764302 7.583006 9.580944 -20.840374 
195.980116 0.000000 153.145936 0.000000 133.094001 0.000000 -8.686114 92.683998 -3.745296 85.806560 -10.113828 179.781573 144.307484 7.270708 -171.625278 -44.833026 -1.250018 3.974490 70.651653 -8.733526 -17.340122 21.454557 0.003108 0.000018 162.746401 4.569897 -153.145558 -42.063145 -1.306397 3.417124 84.179704 -3.056171 -3.612079 21.454550 -0.003093 -0.000003 13.497465 -1.855126 2.019929 16.926797 -3.985841 3.748251 16.608594 -3.963268 3.772226 23.418180 -6.015579 25.626694 -9.960656 -15.175275 31.303514 143.319497 -69.696395 36.499692 -5.688462 47.488272 -2.357995 -80.728798 -10.677759 2.683594 3.818798 -15.159076 30.965628 126.614995 81.294250 -52.451110 -28.920287 -44.455255 16.217903 -73.527655 17.111224 -2.787967 7.344636 9.929759 -20.456055 
196.115162 0.000000 150.945019 0.000000 132.707029 0.000000 -8.385433 92.978453 -3.366487 86.109671 -9.550011 179.652795 143.901506 8.381454 -171.498890 -42.336287 -2.121466 4.119524 69.454590 -9.746346 -19.379466 21.454561 0.003112 0.000019 165.203313 2.575927 -153.034432 -39.886301 -1.023934 3.221744 82.615043 -3.001940 -3.667712 21.454552 -0.003087 -0.000001 13.332913 -1.962387 2.277381 16.585364 -4.231026 4.252001 16.267262 -4.205415 4.277439 23.387457 -5.946566 25.691259 -10.069559 -14.973176 31.333192 143.621369 -69.638429 36.195414 -4.165758 47.437877 3.107965 -77.730184 -12.176759 2.656557 6.088244 -13.176942 28.973232 120.627891 81.453176 -58.454850 -29.721354 -42.932354 19.075531 -75.381634 15.947166 -2.790842 7.721811 9.936658 -19.069868 
196.272025 0.000000 148.695915 0.000000 132.291706 0.000000 -8.087461 93.080528 -2.999775 86.433769 -9.038989 179.680652 143.626556 9.660904 -171.727253 -40.115459 -2.923612 3.451868 68.577345 -10.082839 -21.298258 21.454562 0.003113 0.000018 167.593267 0.598403 -152.960323 -37.901135 -0.823572 3.130384 81.348611 -3.006428 -3.665564 21.454555 -0.003087 0.000002 13.155922 -2.058152 2.509334 16.219363 -4.447832 4.707982 15.901380 -4.419478 4.734710 23.304110 -5.874929 25.719489 -10.082221 -14.732248 31.288723 143.930129 -69.696115 35.875300 -2.732445 47.287038 8.865001 -74.538659 -13.665722 2.625085 7.945045 -11.174756 27.031603 115.162324 81.518873 -63.934751 -30.241392 -41.447643 21.776578 -77.204434 14.621652 -2.769619 8.358694 9.653538 -17.662152 
